PathFileType   4   (X/Y/Z)
DataRate	CameraRate	NumFrames	NumMarkers	Units	OrigDataRate	OrigDataStartFrame	OrigNumFrames
120.0	120.0	9	37	mm	120.0	78	155
Frame#	Time	midhip	hip_r	hip_l	knee_r	knee_l	ankle_r	ankle_l	midasis	asis_r	asis_l	psis_r	psis_l	epicondLat_r	epicondLat_l	epicondMed_r	epicondMed_l	malleolusLat_r	malleolusLat_l	malleolusMedv_r	malleolusMedv_l	neck	subclavicle_r	subclavicle_l	sternalnotch	xyphoidprocess	thighwand_r	thighwand_l	upperleg1_r	upperleg1_l	upperleg2_r	upperleg2_l	shankwand_r	shankwand_l	lowerleg1_r	lowerleg1_l	toe_r	toe_l
 	 	X1	Y1	Z1	X2	Y2	Z2	X3	Y3	Z3	X4	Y4	Z4	X5	Y5	Z5	X6	Y6	Z6	X7	Y7	Z7	X8	Y8	Z8	X9	Y9	Z9	X10	Y10	Z10	X11	Y11	Z11	X12	Y12	Z12	X13	Y13	Z13	X14	Y14	Z14	X15	Y15	Z15	X16	Y16	Z16	X17	Y17	Z17	X18	Y18	Z18	X19	Y19	Z19	X20	Y20	Z20	X21	Y21	Z21	X22	Y22	Z22	X23	Y23	Z23	X24	Y24	Z24	X25	Y25	Z25	X26	Y26	Z26	X27	Y27	Z27	X28	Y28	Z28	X29	Y29	Z29	X30	Y30	Z30	X31	Y31	Z31	X32	Y32	Z32	X33	Y33	Z33	X34	Y34	Z34	X35	Y35	Z35	X36	Y36	Z36	X37	Y37	Z37

	78	0.88333	1130.579	829.158	-204.392	1124.696	809.870	-139.313	1124.451	809.372	-256.783	1023.950	446.749	-150.090	1257.864	468.761	-242.433	813.023	105.673	-173.004	1289.966	65.401	-233.738	1188.545	886.223	-192.547	1180.316	885.982	-93.495	1196.773	886.463	-291.600	1033.541	923.998	-186.908	1038.211	922.441	-241.450	1024.868	444.863	-95.130	1278.812	474.862	-292.375	1026.818	446.816	-201.323	1245.493	446.836	-205.344	799.935	111.364	-137.247	1297.323	65.172	-271.528	835.817	115.049	-200.963	1308.146	81.351	-207.568	1084.894	1329.540	-180.023	1187.255	1255.283	-138.031	1182.870	1257.504	-244.565	1169.916	1267.581	-195.546	1224.165	1100.642	-200.291	1206.869	581.721	-126.756	1314.017	665.648	-201.874	1138.785	647.919	-89.360	1255.068	683.232	-281.223	1110.146	567.275	-92.905	1284.998	601.271	-271.975	851.223	219.810	-60.985	1258.680	178.452	-341.354	861.799	224.073	-101.539	1267.186	185.366	-299.753	905.088	42.325	-137.639	1417.231	42.192	-238.259
	79	0.89167	1138.750	829.624	-205.541	1132.693	810.170	-140.628	1132.393	809.838	-258.099	1031.425	446.957	-149.463	1263.719	468.773	-242.704	815.935	108.905	-171.782	1290.765	65.316	-233.370	1196.671	886.469	-193.784	1188.489	886.105	-94.747	1204.853	886.834	-292.820	1041.749	924.547	-187.682	1046.310	923.062	-242.240	1032.462	445.331	-94.496	1284.651	474.576	-292.688	1034.623	446.873	-201.327	1249.995	446.935	-205.317	802.722	114.974	-136.132	1298.239	64.943	-271.136	839.009	117.971	-199.491	1308.862	80.757	-206.822	1091.364	1329.755	-180.881	1194.444	1256.032	-139.562	1189.406	1258.341	-245.935	1176.749	1268.338	-196.858	1231.886	1101.678	-202.154	1214.927	581.772	-127.122	1321.271	665.330	-202.829	1146.984	647.995	-89.980	1262.698	682.836	-282.379	1118.253	567.564	-93.280	1291.577	600.470	-272.682	855.193	223.237	-60.176	1261.262	178.322	-341.148	865.665	227.211	-100.737	1269.645	184.900	-299.174	905.947	42.644	-137.210	1417.931	41.068	-237.671
	80	0.90000	1146.817	830.073	-206.670	1140.755	810.528	-141.943	1140.322	810.344	-259.414	1039.507	447.089	-148.736	1269.471	468.849	-243.011	819.254	112.326	-170.498	1291.342	65.292	-233.007	1204.775	886.808	-195.075	1196.704	886.330	-96.028	1212.846	887.286	-294.123	1049.864	925.095	-188.398	1054.310	923.671	-242.961	1040.633	445.748	-93.764	1290.360	474.345	-293.048	1043.043	447.129	-201.631	1254.881	447.457	-204.910	805.899	118.804	-134.974	1298.855	64.763	-270.763	842.699	121.005	-197.943	1309.006	80.235	-206.102	1097.844	1330.063	-181.752	1201.537	1256.869	-140.956	1196.130	1259.321	-247.271	1183.545	1269.158	-198.155	1239.697	1102.845	-203.911	1223.383	581.979	-127.346	1328.489	665.138	-203.861	1155.547	648.121	-90.418	1270.234	682.731	-283.462	1126.798	567.923	-93.650	1298.216	600.075	-273.201	859.574	226.855	-59.326	1263.441	178.265	-340.914	869.963	230.588	-99.921	1271.556	184.754	-298.393	906.920	43.010	-136.848	1418.450	40.254	-237.194
	81	0.90833	1154.802	830.619	-207.648	1148.843	810.955	-143.256	1148.208	810.911	-260.727	1048.265	447.114	-147.918	1275.121	468.995	-243.364	823.026	115.935	-169.160	1291.713	65.306	-232.693	1212.830	887.250	-196.409	1204.927	886.661	-97.326	1220.733	887.838	-295.492	1057.853	925.669	-189.043	1062.192	924.297	-243.603	1049.437	446.086	-92.940	1295.933	474.175	-293.467	1052.018	447.005	-201.272	1260.942	448.209	-204.945	809.524	122.849	-133.774	1299.220	64.616	-270.448	846.940	124.214	-196.309	1309.176	80.000	-205.689	1104.247	1330.480	-182.555	1208.611	1257.878	-142.194	1202.926	1260.327	-248.650	1190.299	1270.039	-199.416	1247.617	1104.125	-205.360	1232.241	582.361	-127.388	1335.666	665.072	-204.993	1164.374	648.431	-90.675	1277.620	683.051	-284.543	1135.710	568.173	-93.674	1305.173	600.283	-273.852	864.452	230.634	-58.433	1265.314	178.291	-340.733	874.915	233.995	-98.994	1273.072	185.093	-297.830	908.040	43.444	-136.589	1418.818	39.699	-236.831
	82	0.91667	1162.737	831.334	-208.471	1156.907	811.457	-144.561	1156.026	811.548	-262.029	1057.741	447.005	-147.017	1280.664	469.196	-243.776	827.288	119.731	-167.773	1291.896	65.332	-232.462	1220.809	887.790	-197.759	1213.111	887.089	-98.625	1228.507	888.492	-296.893	1065.699	926.286	-189.618	1069.952	924.963	-244.173	1058.904	446.318	-92.034	1301.353	474.052	-293.962	1061.766	446.136	-200.186	1267.646	449.065	-205.447	813.652	127.098	-132.530	1299.391	64.483	-270.216	851.657	127.617	-194.645	1309.181	79.843	-205.547	1110.674	1330.938	-183.307	1215.518	1258.970	-143.498	1209.545	1261.421	-249.971	1196.994	1270.969	-200.636	1255.268	1105.470	-206.832	1241.497	582.930	-127.226	1342.805	665.081	-206.257	1173.356	648.872	-90.987	1284.801	683.601	-285.629	1144.944	568.274	-93.438	1312.153	600.952	-274.736	869.914	234.527	-57.489	1266.995	178.381	-340.673	880.563	237.438	-97.994	1274.499	185.630	-297.733	909.348	43.984	-136.456	1419.075	39.331	-236.580
	83	0.92500	1170.388	832.024	-209.101	1164.895	812.024	-145.844	1163.760	812.251	-263.310	1067.946	446.740	-146.049	1286.083	469.425	-244.262	832.065	123.715	-166.349	1291.912	65.351	-232.330	1228.688	888.414	-199.093	1221.201	887.600	-99.903	1236.175	889.229	-298.283	1073.387	926.949	-190.140	1077.587	925.681	-244.691	1069.034	446.420	-91.060	1306.592	473.948	-294.552	1072.687	444.709	-199.222	1273.794	449.936	-205.719	818.329	131.539	-131.243	1299.420	64.344	-270.077	856.817	131.224	-193.028	1309.034	79.753	-205.560	1117.114	1331.384	-184.222	1222.434	1260.031	-144.771	1216.045	1262.583	-251.147	1203.622	1271.918	-201.816	1262.826	1106.843	-208.423	1251.135	583.690	-126.847	1349.903	665.085	-207.687	1182.405	649.200	-91.386	1291.695	684.084	-286.784	1154.599	568.354	-93.247	1318.704	601.411	-275.709	876.040	238.479	-56.488	1268.588	178.500	-340.777	886.933	240.990	-96.951	1276.038	185.947	-297.980	910.898	44.688	-136.449	1419.256	39.082	-236.436
	84	0.93333	1177.700	832.622	-209.562	1172.755	812.642	-147.090	1171.397	813.001	-264.553	1078.859	446.310	-145.034	1291.356	469.649	-244.830	837.363	127.894	-164.907	1291.794	65.355	-232.298	1236.441	889.097	-200.374	1229.140	888.170	-101.132	1243.742	890.024	-299.616	1080.914	927.639	-190.632	1085.100	926.444	-245.183	1079.810	446.375	-90.043	1311.624	473.834	-295.248	1084.590	443.188	-198.382	1279.436	450.588	-205.974	823.587	136.159	-129.919	1299.361	64.194	-270.029	862.611	134.931	-191.393	1309.307	79.801	-205.662	1123.516	1331.879	-185.201	1229.295	1261.089	-145.957	1222.472	1263.664	-252.270	1210.180	1272.861	-202.952	1270.216	1108.144	-209.835	1261.130	584.632	-126.261	1356.942	665.004	-209.293	1191.662	649.640	-91.611	1298.340	684.320	-288.070	1164.701	568.482	-92.978	1324.879	601.461	-276.864	882.892	242.431	-55.432	1270.162	178.610	-341.054	894.060	244.557	-95.790	1277.711	186.056	-298.455	912.753	45.636	-136.536	1419.391	38.900	-236.385
	85	0.94167	1184.899	833.253	-210.044	1180.447	813.289	-148.282	1178.920	813.773	-265.743	1090.443	445.719	-144.004	1296.453	469.839	-245.486	843.174	132.282	-163.477	1291.578	65.354	-232.356	1244.040	889.814	-201.575	1236.879	888.779	-102.293	1251.201	890.849	-300.858	1088.281	928.326	-191.126	1092.483	927.234	-245.680	1091.197	446.174	-89.011	1316.426	473.687	-296.048	1096.812	441.973	-197.443	1284.521	450.959	-206.672	829.436	140.951	-128.572	1299.250	64.038	-270.061	869.051	138.563	-189.711	1309.641	79.875	-205.814	1129.819	1332.414	-185.984	1235.966	1262.114	-147.108	1228.750	1264.595	-253.474	1216.665	1273.778	-204.043	1277.275	1109.295	-211.073	1271.444	585.746	-125.498	1363.884	664.785	-211.050	1201.351	650.426	-91.620	1304.888	684.303	-289.530	1175.079	568.613	-92.544	1330.755	601.222	-278.335	890.506	246.324	-54.326	1271.744	178.686	-341.487	901.990	247.996	-94.557	1279.480	186.146	-299.111	914.993	46.922	-136.657	1419.495	38.751	-236.412
	86	0.95000	1192.001	833.883	-210.669	1187.945	813.943	-149.406	1186.314	814.545	-266.865	1102.636	444.985	-142.992	1301.338	469.976	-246.227	849.475	136.892	-162.094	1291.299	65.360	-232.487	1251.463	890.545	-202.678	1244.389	889.407	-103.370	1258.538	891.683	-301.986	1095.498	928.978	-191.641	1099.726	928.021	-246.204	1103.147	445.823	-88.001	1320.980	473.495	-296.942	1109.552	440.606	-196.398	1289.243	451.112	-207.550	835.870	145.910	-127.225	1299.110	63.887	-270.158	875.889	142.285	-188.119	1309.733	79.906	-206.036	1136.024	1332.946	-186.711	1242.598	1263.090	-148.151	1234.993	1265.427	-254.652	1223.079	1274.652	-205.089	1284.275	1110.363	-212.169	1282.030	587.024	-124.611	1370.673	664.410	-212.901	1211.180	651.097	-91.484	1311.195	684.052	-291.130	1185.767	568.729	-91.975	1336.314	600.739	-280.000	898.894	250.111	-53.180	1273.315	178.718	-342.033	910.652	251.308	-93.363	1281.267	186.209	-299.840	917.715	48.640	-136.727	1419.575	38.618	-236.496
